<svg xmlns="http://www.w3.org/2000/svg" xmlns:xlink="http://www.w3.org/1999/xlink" width="204.186" height="204.187" viewBox="0 0 204.186 204.187">
  <defs>
    <filter id="Path_1163" x="0" y="0" width="204.186" height="204.187" filterUnits="userSpaceOnUse">
      <feOffset dy="3" input="SourceAlpha"/>
      <feGaussianBlur stdDeviation="3" result="blur"/>
      <feFlood flood-opacity="0.2"/>
      <feComposite operator="in" in2="blur"/>
      <feComposite in="SourceGraphic"/>
    </filter>
  </defs>
  <g id="Group_17720" data-name="Group 17720" transform="translate(18344.51 -1170.223)">
    <g transform="matrix(1, 0, 0, 1, -18344.51, 1170.22)" filter="url(#Path_1163)">
      <path id="Path_1163-2" data-name="Path 1163" d="M38.681,77.362A85.932,85.932,0,0,0,124.612-8.569,85.932,85.932,0,0,0,38.681-94.5,85.932,85.932,0,0,0-47.25-8.569,85.932,85.932,0,0,0,38.681,77.362" transform="matrix(-1, -0.09, 0.09, -1, 141.37, 93.93)" fill="#3ab54a"/>
    </g>
    <path id="Path_10851" data-name="Path 10851" d="M28.161.25a3.872,3.872,0,0,1,1.713.4L37.839,4.54a2.4,2.4,0,0,0,2.112,0L47.916.647A3.9,3.9,0,0,1,53.08,2.325l4.155,7.83A2.391,2.391,0,0,0,58.943,11.4l8.732,1.531a3.9,3.9,0,0,1,3.19,4.393L69.624,26.1a2.394,2.394,0,0,0,.653,2.01l6.164,6.37a3.906,3.906,0,0,1,0,5.429l-6.165,6.373a2.419,2.419,0,0,0-.653,2.008l1.241,8.778a3.9,3.9,0,0,1-3.19,4.394l-8.733,1.531a2.39,2.39,0,0,0-1.709,1.241L53.08,72.065a3.9,3.9,0,0,1-5.164,1.677L39.951,69.85a2.4,2.4,0,0,0-2.112,0l-7.964,3.893a3.9,3.9,0,0,1-5.165-1.677l-4.155-7.833a2.39,2.39,0,0,0-1.709-1.241l-8.731-1.531a3.905,3.905,0,0,1-3.191-4.394l1.241-8.778a2.419,2.419,0,0,0-.653-2.008L1.348,39.909a3.906,3.906,0,0,1,0-5.429l6.165-6.371A2.393,2.393,0,0,0,8.165,26.1L6.924,17.321a3.9,3.9,0,0,1,3.191-4.392L18.846,11.4a2.391,2.391,0,0,0,1.709-1.242l4.155-7.83A3.9,3.9,0,0,1,28.161.25ZM38.895,6.284a3.927,3.927,0,0,1-1.715-.4L29.216,2a2.4,2.4,0,0,0-3.181,1.033l-4.155,7.83a3.881,3.881,0,0,1-2.775,2.017l-8.731,1.531a2.4,2.4,0,0,0-1.965,2.7l1.241,8.778a3.884,3.884,0,0,1-1.059,3.262L2.426,35.522a2.4,2.4,0,0,0,0,3.344l6.164,6.372A3.93,3.93,0,0,1,9.65,48.5L8.409,57.277a2.4,2.4,0,0,0,1.965,2.706l8.731,1.531A3.88,3.88,0,0,1,21.88,63.53l4.155,7.832a2.4,2.4,0,0,0,3.181,1.033L37.18,68.5a3.9,3.9,0,0,1,3.43,0l7.965,3.893a2.4,2.4,0,0,0,3.18-1.033l4.155-7.832a3.88,3.88,0,0,1,2.775-2.015l8.733-1.531a2.394,2.394,0,0,0,1.964-2.706L68.139,48.5a3.93,3.93,0,0,1,1.06-3.261l6.165-6.372a2.4,2.4,0,0,0,0-3.344L69.2,29.151a3.885,3.885,0,0,1-1.06-3.263l1.241-8.778a2.393,2.393,0,0,0-1.964-2.7l-8.732-1.531a3.881,3.881,0,0,1-2.775-2.017L51.755,3.028A2.4,2.4,0,0,0,48.575,2L40.61,5.888A3.927,3.927,0,0,1,38.895,6.284Z" transform="translate(-18281.313 1194.41)" fill="#fff"/>
    <path id="Ellipse_100" data-name="Ellipse 100" d="M22.737-.75a23.493,23.493,0,0,1,9.142,45.128A23.493,23.493,0,0,1,13.595,1.1,23.34,23.34,0,0,1,22.737-.75Zm0,45.474A21.987,21.987,0,1,0,.75,22.737,22.012,22.012,0,0,0,22.737,44.724Z" transform="translate(-18265.154 1208.868)" fill="#fff"/>
    <path id="Path_10852" data-name="Path 10852" d="M38.785,18.261a4.217,4.217,0,0,1,2.982,7.2L31.139,36.091a4.946,4.946,0,0,1-3.519,1.457h0A4.946,4.946,0,0,1,24.1,36.091l-5.616-5.618a4.217,4.217,0,0,1,5.964-5.964L27.537,27.6a.118.118,0,0,0,.166,0l8.1-8.1A4.19,4.19,0,0,1,38.785,18.261ZM27.62,36.047a3.455,3.455,0,0,0,2.458-1.017L40.707,24.4a2.717,2.717,0,0,0-3.843-3.843l-8.1,8.1a1.618,1.618,0,0,1-2.287,0L23.389,25.57a2.717,2.717,0,0,0-3.843,3.843l5.616,5.618A3.455,3.455,0,0,0,27.62,36.047Z" transform="translate(-18272.543 1203.7)" fill="#fff"/>
    <path id="Path_10990" data-name="Path 10990" d="M80.656,16.606h-5L74.824,19H72.178L76.7,6.418H79.63L84.148,19H81.484Zm-.684-2.016L78.154,9.334,76.336,14.59ZM88.36,17H92.5v2H85.84V6.436h2.52Zm5.13-4.3a6.581,6.581,0,0,1,.837-3.321,5.977,5.977,0,0,1,2.286-2.286,6.487,6.487,0,0,1,3.249-.819,6.391,6.391,0,0,1,3.69,1.08,5.647,5.647,0,0,1,2.214,2.988h-2.9a3,3,0,0,0-1.215-1.35,3.566,3.566,0,0,0-1.809-.45,3.722,3.722,0,0,0-1.953.513A3.5,3.5,0,0,0,96.559,10.5a4.777,4.777,0,0,0-.477,2.2,4.791,4.791,0,0,0,.477,2.187,3.489,3.489,0,0,0,1.332,1.458,3.722,3.722,0,0,0,1.953.513,3.51,3.51,0,0,0,1.809-.459,3.058,3.058,0,0,0,1.215-1.359h2.9a5.616,5.616,0,0,1-2.205,3,6.418,6.418,0,0,1-3.7,1.071,6.487,6.487,0,0,1-3.249-.819,6,6,0,0,1-2.286-2.277A6.532,6.532,0,0,1,93.49,12.7Zm16.956-6.264V19h-2.52V6.436ZM50.425,40.606h-5L44.593,43H41.947l4.518-12.582H49.4L53.917,43H51.253Zm-.684-2.016-1.818-5.256L46.105,38.59Zm5.22-.576a5.593,5.593,0,0,1,.63-2.709,4.5,4.5,0,0,1,1.746-1.8,5.052,5.052,0,0,1,2.556-.639,4.914,4.914,0,0,1,3.069.927,4.509,4.509,0,0,1,1.629,2.6H61.873a1.988,1.988,0,0,0-.729-1.017,2.116,2.116,0,0,0-1.269-.369,2.078,2.078,0,0,0-1.71.783,3.466,3.466,0,0,0-.63,2.223,3.434,3.434,0,0,0,.63,2.205,2.078,2.078,0,0,0,1.71.783,1.911,1.911,0,0,0,2-1.368h2.718a4.6,4.6,0,0,1-1.638,2.574,4.827,4.827,0,0,1-3.06.954,5.052,5.052,0,0,1-2.556-.639,4.5,4.5,0,0,1-1.746-1.8A5.593,5.593,0,0,1,54.961,38.014Zm10.836,0a5.593,5.593,0,0,1,.63-2.709,4.5,4.5,0,0,1,1.746-1.8,5.052,5.052,0,0,1,2.556-.639,4.914,4.914,0,0,1,3.069.927,4.509,4.509,0,0,1,1.629,2.6H72.709a1.988,1.988,0,0,0-.729-1.017,2.116,2.116,0,0,0-1.269-.369,2.078,2.078,0,0,0-1.71.783,3.466,3.466,0,0,0-.63,2.223A3.434,3.434,0,0,0,69,40.219a2.078,2.078,0,0,0,1.71.783,1.911,1.911,0,0,0,2-1.368h2.718a4.6,4.6,0,0,1-1.638,2.574,4.827,4.827,0,0,1-3.06.954,5.052,5.052,0,0,1-2.556-.639,4.5,4.5,0,0,1-1.746-1.8A5.593,5.593,0,0,1,65.8,38.014Zm14-3.438a3.467,3.467,0,0,1,3.06-1.692V35.53H82.2a2.1,2.1,0,0,0-2.394,2.5V43h-2.52V33.028H79.8ZM93.823,37.8a5.948,5.948,0,0,1-.072.972h-7.29a2.479,2.479,0,0,0,.756,1.692,2.331,2.331,0,0,0,1.638.612,2.058,2.058,0,0,0,2-1.206h2.718a4.542,4.542,0,0,1-1.656,2.367,4.835,4.835,0,0,1-3.006.927,5.2,5.2,0,0,1-2.583-.639,4.5,4.5,0,0,1-1.782-1.809,5.543,5.543,0,0,1-.639-2.7,5.646,5.646,0,0,1,.63-2.718A4.4,4.4,0,0,1,86.3,33.5a5.664,5.664,0,0,1,5.157-.018A4.307,4.307,0,0,1,93.2,35.215,5.256,5.256,0,0,1,93.823,37.8Zm-2.61-.72a2,2,0,0,0-.7-1.557,2.487,2.487,0,0,0-1.674-.585,2.287,2.287,0,0,0-1.575.567,2.493,2.493,0,0,0-.783,1.575Zm3.8.9a5.772,5.772,0,0,1,.6-2.682,4.347,4.347,0,0,1,3.969-2.43,4.235,4.235,0,0,1,1.854.423,3.707,3.707,0,0,1,1.4,1.125V29.68H105.4V43h-2.556V41.524a3.415,3.415,0,0,1-1.314,1.188,4.116,4.116,0,0,1-1.962.45,4.283,4.283,0,0,1-2.3-.648,4.512,4.512,0,0,1-1.647-1.827A5.867,5.867,0,0,1,95.011,37.978Zm7.848.036a3.232,3.232,0,0,0-.36-1.575,2.538,2.538,0,0,0-.972-1.008,2.6,2.6,0,0,0-1.314-.351,2.531,2.531,0,0,0-2.259,1.341,3.129,3.129,0,0,0-.369,1.557,3.233,3.233,0,0,0,.369,1.575,2.657,2.657,0,0,0,.972,1.035,2.469,2.469,0,0,0,1.287.36,2.6,2.6,0,0,0,1.314-.351,2.538,2.538,0,0,0,.972-1.008A3.232,3.232,0,0,0,102.859,38.014Zm6.282-6.174a1.535,1.535,0,0,1-1.107-.423,1.478,1.478,0,0,1,0-2.106,1.66,1.66,0,0,1,2.214,0,1.478,1.478,0,0,1,0,2.106A1.535,1.535,0,0,1,109.141,31.84Zm1.242,1.188V43h-2.52V33.028ZM115.8,35.1v4.824a.953.953,0,0,0,.243.729,1.194,1.194,0,0,0,.819.225h1.17V43h-1.584q-3.186,0-3.186-3.1V35.1h-1.188v-2.07h1.188V30.562H115.8v2.466h2.232V35.1Zm13.32,2.7a5.947,5.947,0,0,1-.072.972h-7.29a2.479,2.479,0,0,0,.756,1.692,2.331,2.331,0,0,0,1.638.612,2.058,2.058,0,0,0,2-1.206h2.718a4.542,4.542,0,0,1-1.656,2.367,4.835,4.835,0,0,1-3.006.927,5.2,5.2,0,0,1-2.583-.639,4.5,4.5,0,0,1-1.782-1.809,5.543,5.543,0,0,1-.639-2.7,5.646,5.646,0,0,1,.63-2.718,4.4,4.4,0,0,1,1.764-1.8,5.664,5.664,0,0,1,5.157-.018,4.307,4.307,0,0,1,1.746,1.737A5.256,5.256,0,0,1,129.121,37.8Zm-2.61-.72a2,2,0,0,0-.7-1.557,2.487,2.487,0,0,0-1.674-.585,2.287,2.287,0,0,0-1.575.567,2.493,2.493,0,0,0-.783,1.575Zm3.8.9a5.771,5.771,0,0,1,.6-2.682,4.347,4.347,0,0,1,3.969-2.43,4.235,4.235,0,0,1,1.854.423,3.707,3.707,0,0,1,1.4,1.125V29.68H140.7V43h-2.556V41.524a3.415,3.415,0,0,1-1.314,1.188,4.116,4.116,0,0,1-1.962.45,4.283,4.283,0,0,1-2.3-.648,4.512,4.512,0,0,1-1.647-1.827A5.867,5.867,0,0,1,130.309,37.978Zm7.848.036a3.232,3.232,0,0,0-.36-1.575,2.538,2.538,0,0,0-.972-1.008,2.6,2.6,0,0,0-1.314-.351,2.531,2.531,0,0,0-2.259,1.341,3.129,3.129,0,0,0-.369,1.557,3.233,3.233,0,0,0,.369,1.575,2.657,2.657,0,0,0,.972,1.035,2.469,2.469,0,0,0,1.287.36,2.6,2.6,0,0,0,1.314-.351,2.538,2.538,0,0,0,.972-1.008A3.232,3.232,0,0,0,138.157,38.014Z" transform="translate(-18333.828 1276.192)" fill="#fff"/>
  </g>
</svg>
